<?xml version="1.0" encoding="UTF-8" standalone="no"?>
<!DOCTYPE svg PUBLIC "-//W3C//DTD SVG 1.1//EN"
 "http://www.w3.org/Graphics/SVG/1.1/DTD/svg11.dtd">
<!-- Generated by graphviz version 2.38.0 (20140413.2041)
 -->
<!-- Title: controllers_diagram Pages: 1 -->
<svg width="664pt" height="695pt"
 viewBox="0.00 0.00 663.73 695.00" xmlns="http://www.w3.org/2000/svg" xmlns:xlink="http://www.w3.org/1999/xlink">
<g id="graph0" class="graph" transform="scale(1 1) rotate(0) translate(274.09 421.5)">
<title>controllers_diagram</title>
<polygon fill="white" stroke="none" points="-274.09,273.5 -274.09,-421.5 389.638,-421.5 389.638,273.5 -274.09,273.5"/>
<!-- _diagram_info -->
<g id="node1" class="node"><title>_diagram_info</title>
<text text-anchor="start" x="8.31226" y="156.9" font-family="Times,serif" font-size="13.00">Controllers diagram</text>
<text text-anchor="start" x="8.31226" y="169.9" font-family="Times,serif" font-size="13.00">Date: Mar 18 2015 &#45; 12:21</text>
<text text-anchor="start" x="8.31226" y="182.9" font-family="Times,serif" font-size="13.00">Migration version: 20150318104428</text>
<text text-anchor="start" x="8.31226" y="195.9" font-family="Times,serif" font-size="13.00">Generated by RailRoady 1.3.0</text>
<text text-anchor="start" x="8.31226" y="208.9" font-family="Times,serif" font-size="13.00">http://railroady.prestonlee.com</text>
</g>
<!-- Admin::BadgesController -->
<g id="node2" class="node"><title>Admin::BadgesController</title>
<path fill="none" stroke="black" d="M-77.7139,107C-77.7139,107 59.7139,107 59.7139,107 65.7139,107 71.7139,101 71.7139,95 71.7139,95 71.7139,-83 71.7139,-83 71.7139,-89 65.7139,-95 59.7139,-95 59.7139,-95 -77.7139,-95 -77.7139,-95 -83.7139,-95 -89.7139,-89 -89.7139,-83 -89.7139,-83 -89.7139,95 -89.7139,95 -89.7139,101 -83.7139,107 -77.7139,107"/>
<text text-anchor="middle" x="-9" y="-79.8" font-family="Times,serif" font-size="14.00">Admin::BadgesController</text>
<polyline fill="none" stroke="black" points="-89.7139,-73 71.7139,-73 "/>
<text text-anchor="start" x="-81.7139" y="-57.8" font-family="Times,serif" font-size="14.00">create</text>
<text text-anchor="start" x="-81.7139" y="-43.8" font-family="Times,serif" font-size="14.00">destroy</text>
<text text-anchor="start" x="-81.7139" y="-29.8" font-family="Times,serif" font-size="14.00">edit</text>
<text text-anchor="start" x="-81.7139" y="-15.8" font-family="Times,serif" font-size="14.00">index</text>
<text text-anchor="start" x="-81.7139" y="-1.8" font-family="Times,serif" font-size="14.00">new</text>
<text text-anchor="start" x="-81.7139" y="12.2" font-family="Times,serif" font-size="14.00">show</text>
<text text-anchor="start" x="-81.7139" y="26.2" font-family="Times,serif" font-size="14.00">update</text>
<polyline fill="none" stroke="black" points="-89.7139,33 71.7139,33 "/>
<polyline fill="none" stroke="black" points="-89.7139,57 71.7139,57 "/>
<text text-anchor="start" x="-81.7139" y="72.2" font-family="Times,serif" font-size="14.00">_layout</text>
<text text-anchor="start" x="-81.7139" y="86.2" font-family="Times,serif" font-size="14.00">badge_params</text>
<text text-anchor="start" x="-81.7139" y="100.2" font-family="Times,serif" font-size="14.00">set_badge</text>
</g>
<!-- Admin::TeamsController -->
<g id="node3" class="node"><title>Admin::TeamsController</title>
<path fill="none" stroke="black" d="M119.723,107C119.723,107 252.277,107 252.277,107 258.277,107 264.277,101 264.277,95 264.277,95 264.277,-83 264.277,-83 264.277,-89 258.277,-95 252.277,-95 252.277,-95 119.723,-95 119.723,-95 113.723,-95 107.723,-89 107.723,-83 107.723,-83 107.723,95 107.723,95 107.723,101 113.723,107 119.723,107"/>
<text text-anchor="middle" x="186" y="-79.8" font-family="Times,serif" font-size="14.00">Admin::TeamsController</text>
<polyline fill="none" stroke="black" points="107.723,-73 264.277,-73 "/>
<text text-anchor="start" x="115.723" y="-57.8" font-family="Times,serif" font-size="14.00">create</text>
<text text-anchor="start" x="115.723" y="-43.8" font-family="Times,serif" font-size="14.00">destroy</text>
<text text-anchor="start" x="115.723" y="-29.8" font-family="Times,serif" font-size="14.00">edit</text>
<text text-anchor="start" x="115.723" y="-15.8" font-family="Times,serif" font-size="14.00">index</text>
<text text-anchor="start" x="115.723" y="-1.8" font-family="Times,serif" font-size="14.00">new</text>
<text text-anchor="start" x="115.723" y="12.2" font-family="Times,serif" font-size="14.00">show</text>
<text text-anchor="start" x="115.723" y="26.2" font-family="Times,serif" font-size="14.00">update</text>
<polyline fill="none" stroke="black" points="107.723,33 264.277,33 "/>
<polyline fill="none" stroke="black" points="107.723,57 264.277,57 "/>
<text text-anchor="start" x="115.723" y="72.2" font-family="Times,serif" font-size="14.00">_layout</text>
<text text-anchor="start" x="115.723" y="86.2" font-family="Times,serif" font-size="14.00">set_team</text>
<text text-anchor="start" x="115.723" y="100.2" font-family="Times,serif" font-size="14.00">team_params</text>
</g>
<!-- Admin::UsersController -->
<g id="node4" class="node"><title>Admin::UsersController</title>
<path fill="none" stroke="black" d="M137.952,-127C137.952,-127 266.048,-127 266.048,-127 272.048,-127 278.048,-133 278.048,-139 278.048,-139 278.048,-317 278.048,-317 278.048,-323 272.048,-329 266.048,-329 266.048,-329 137.952,-329 137.952,-329 131.952,-329 125.952,-323 125.952,-317 125.952,-317 125.952,-139 125.952,-139 125.952,-133 131.952,-127 137.952,-127"/>
<text text-anchor="middle" x="202" y="-313.8" font-family="Times,serif" font-size="14.00">Admin::UsersController</text>
<polyline fill="none" stroke="black" points="125.952,-307 278.048,-307 "/>
<text text-anchor="start" x="133.952" y="-291.8" font-family="Times,serif" font-size="14.00">create</text>
<text text-anchor="start" x="133.952" y="-277.8" font-family="Times,serif" font-size="14.00">destroy</text>
<text text-anchor="start" x="133.952" y="-263.8" font-family="Times,serif" font-size="14.00">edit</text>
<text text-anchor="start" x="133.952" y="-249.8" font-family="Times,serif" font-size="14.00">index</text>
<text text-anchor="start" x="133.952" y="-235.8" font-family="Times,serif" font-size="14.00">new</text>
<text text-anchor="start" x="133.952" y="-221.8" font-family="Times,serif" font-size="14.00">show</text>
<text text-anchor="start" x="133.952" y="-207.8" font-family="Times,serif" font-size="14.00">update</text>
<polyline fill="none" stroke="black" points="125.952,-201 278.048,-201 "/>
<polyline fill="none" stroke="black" points="125.952,-177 278.048,-177 "/>
<text text-anchor="start" x="133.952" y="-161.8" font-family="Times,serif" font-size="14.00">_layout</text>
<text text-anchor="start" x="133.952" y="-147.8" font-family="Times,serif" font-size="14.00">set_user</text>
<text text-anchor="start" x="133.952" y="-133.8" font-family="Times,serif" font-size="14.00">user_params</text>
</g>
<!-- AdminController -->
<g id="node5" class="node"><title>AdminController</title>
<path fill="none" stroke="black" d="M-222.142,-127C-222.142,-127 -115.858,-127 -115.858,-127 -109.858,-127 -103.858,-133 -103.858,-139 -103.858,-139 -103.858,-219 -103.858,-219 -103.858,-225 -109.858,-231 -115.858,-231 -115.858,-231 -222.142,-231 -222.142,-231 -228.142,-231 -234.142,-225 -234.142,-219 -234.142,-219 -234.142,-139 -234.142,-139 -234.142,-133 -228.142,-127 -222.142,-127"/>
<text text-anchor="middle" x="-169" y="-215.8" font-family="Times,serif" font-size="14.00">AdminController</text>
<polyline fill="none" stroke="black" points="-234.142,-209 -103.858,-209 "/>
<text text-anchor="start" x="-226.142" y="-193.8" font-family="Times,serif" font-size="14.00">index</text>
<polyline fill="none" stroke="black" points="-234.142,-187 -103.858,-187 "/>
<polyline fill="none" stroke="black" points="-234.142,-163 -103.858,-163 "/>
<text text-anchor="start" x="-226.142" y="-147.8" font-family="Times,serif" font-size="14.00">_layout</text>
<text text-anchor="start" x="-226.142" y="-133.8" font-family="Times,serif" font-size="14.00">authenticate_admin!</text>
</g>
<!-- ApplicationController -->
<g id="node6" class="node"><title>ApplicationController</title>
<path fill="none" stroke="black" d="M-221.821,233C-221.821,233 -106.179,233 -106.179,233 -100.179,233 -94.1792,227 -94.1792,221 -94.1792,221 -94.1792,153 -94.1792,153 -94.1792,147 -100.179,141 -106.179,141 -106.179,141 -221.821,141 -221.821,141 -227.821,141 -233.821,147 -233.821,153 -233.821,153 -233.821,221 -233.821,221 -233.821,227 -227.821,233 -221.821,233"/>
<text text-anchor="middle" x="-164" y="156.2" font-family="Times,serif" font-size="14.00">ApplicationController</text>
<polyline fill="none" stroke="black" points="-233.821,163 -94.1792,163 "/>
<polyline fill="none" stroke="black" points="-233.821,187 -94.1792,187 "/>
<polyline fill="none" stroke="black" points="-233.821,211 -94.1792,211 "/>
<text text-anchor="start" x="-225.821" y="226.2" font-family="Times,serif" font-size="14.00">_layout</text>
</g>
<!-- HomeController -->
<g id="node7" class="node"><title>HomeController</title>
<path fill="none" stroke="black" d="M-221.879,-1C-221.879,-1 -138.121,-1 -138.121,-1 -132.121,-1 -126.121,-7 -126.121,-13 -126.121,-13 -126.121,-79 -126.121,-79 -126.121,-85 -132.121,-91 -138.121,-91 -138.121,-91 -221.879,-91 -221.879,-91 -227.879,-91 -233.879,-85 -233.879,-79 -233.879,-79 -233.879,-13 -233.879,-13 -233.879,-7 -227.879,-1 -221.879,-1"/>
<text text-anchor="middle" x="-180" y="-75.8" font-family="Times,serif" font-size="14.00">HomeController</text>
<polyline fill="none" stroke="black" points="-233.879,-69 -126.121,-69 "/>
<text text-anchor="start" x="-225.879" y="-53.8" font-family="Times,serif" font-size="14.00">index</text>
<polyline fill="none" stroke="black" points="-233.879,-47 -126.121,-47 "/>
<polyline fill="none" stroke="black" points="-233.879,-23 -126.121,-23 "/>
<text text-anchor="start" x="-225.879" y="-7.8" font-family="Times,serif" font-size="14.00">_layout</text>
</g>
<!-- RegistrationsController -->
<g id="node8" class="node"><title>RegistrationsController</title>
<path fill="none" stroke="black" d="M246.362,269C246.362,269 373.638,269 373.638,269 379.638,269 385.638,263 385.638,257 385.638,257 385.638,161 385.638,161 385.638,155 379.638,149 373.638,149 373.638,149 246.362,149 246.362,149 240.362,149 234.362,155 234.362,161 234.362,161 234.362,257 234.362,257 234.362,263 240.362,269 246.362,269"/>
<text text-anchor="middle" x="310" y="164.2" font-family="Times,serif" font-size="14.00">RegistrationsController</text>
<polyline fill="none" stroke="black" points="234.362,171 385.638,171 "/>
<polyline fill="none" stroke="black" points="234.362,195 385.638,195 "/>
<polyline fill="none" stroke="black" points="234.362,219 385.638,219 "/>
<text text-anchor="start" x="242.362" y="234.2" font-family="Times,serif" font-size="14.00">_layout</text>
<text text-anchor="start" x="242.362" y="248.2" font-family="Times,serif" font-size="14.00">account_update_params</text>
<text text-anchor="start" x="242.362" y="262.2" font-family="Times,serif" font-size="14.00">sign_up_params</text>
</g>
<!-- TeamsController -->
<g id="node9" class="node"><title>TeamsController</title>
<path fill="none" stroke="black" d="M-258.09,-271C-258.09,-271 -119.91,-271 -119.91,-271 -113.91,-271 -107.91,-277 -107.91,-283 -107.91,-283 -107.91,-405 -107.91,-405 -107.91,-411 -113.91,-417 -119.91,-417 -119.91,-417 -258.09,-417 -258.09,-417 -264.09,-417 -270.09,-411 -270.09,-405 -270.09,-405 -270.09,-283 -270.09,-283 -270.09,-277 -264.09,-271 -258.09,-271"/>
<text text-anchor="middle" x="-189" y="-401.8" font-family="Times,serif" font-size="14.00">TeamsController</text>
<polyline fill="none" stroke="black" points="-270.09,-395 -107.91,-395 "/>
<text text-anchor="start" x="-262.09" y="-379.8" font-family="Times,serif" font-size="14.00">index</text>
<text text-anchor="start" x="-262.09" y="-365.8" font-family="Times,serif" font-size="14.00">show</text>
<text text-anchor="start" x="-262.09" y="-351.8" font-family="Times,serif" font-size="14.00">start_trial</text>
<text text-anchor="start" x="-262.09" y="-337.8" font-family="Times,serif" font-size="14.00">team_params</text>
<polyline fill="none" stroke="black" points="-270.09,-331 -107.91,-331 "/>
<polyline fill="none" stroke="black" points="-270.09,-307 -107.91,-307 "/>
<text text-anchor="start" x="-262.09" y="-291.8" font-family="Times,serif" font-size="14.00">_layout</text>
<text text-anchor="start" x="-262.09" y="-277.8" font-family="Times,serif" font-size="14.00">make_sure_team_is_mine</text>
</g>
<!-- UsersController -->
<g id="node10" class="node"><title>UsersController</title>
<path fill="none" stroke="black" d="M-60.0898,-127C-60.0898,-127 78.0898,-127 78.0898,-127 84.0898,-127 90.0898,-133 90.0898,-139 90.0898,-139 90.0898,-331 90.0898,-331 90.0898,-337 84.0898,-343 78.0898,-343 78.0898,-343 -60.0898,-343 -60.0898,-343 -66.0898,-343 -72.0898,-337 -72.0898,-331 -72.0898,-331 -72.0898,-139 -72.0898,-139 -72.0898,-133 -66.0898,-127 -60.0898,-127"/>
<text text-anchor="middle" x="9" y="-327.8" font-family="Times,serif" font-size="14.00">UsersController</text>
<polyline fill="none" stroke="black" points="-72.0898,-321 90.0898,-321 "/>
<text text-anchor="start" x="-64.0898" y="-305.8" font-family="Times,serif" font-size="14.00">edit_trial</text>
<text text-anchor="start" x="-64.0898" y="-291.8" font-family="Times,serif" font-size="14.00">finish_trial</text>
<text text-anchor="start" x="-64.0898" y="-277.8" font-family="Times,serif" font-size="14.00">manage_trial</text>
<text text-anchor="start" x="-64.0898" y="-263.8" font-family="Times,serif" font-size="14.00">progress_trial</text>
<text text-anchor="start" x="-64.0898" y="-249.8" font-family="Times,serif" font-size="14.00">show_trial</text>
<text text-anchor="start" x="-64.0898" y="-235.8" font-family="Times,serif" font-size="14.00">start_trial</text>
<text text-anchor="start" x="-64.0898" y="-221.8" font-family="Times,serif" font-size="14.00">trial_params</text>
<text text-anchor="start" x="-64.0898" y="-207.8" font-family="Times,serif" font-size="14.00">update_trial</text>
<text text-anchor="start" x="-64.0898" y="-193.8" font-family="Times,serif" font-size="14.00">user_params</text>
<polyline fill="none" stroke="black" points="-72.0898,-187 90.0898,-187 "/>
<polyline fill="none" stroke="black" points="-72.0898,-163 90.0898,-163 "/>
<text text-anchor="start" x="-64.0898" y="-147.8" font-family="Times,serif" font-size="14.00">_layout</text>
<text text-anchor="start" x="-64.0898" y="-133.8" font-family="Times,serif" font-size="14.00">make_sure_team_is_mine</text>
</g>
</g>
</svg>
