<?xml version="1.0" encoding="UTF-8" standalone="no"?>
<!DOCTYPE svg PUBLIC "-//W3C//DTD SVG 1.1//EN"
 "http://www.w3.org/Graphics/SVG/1.1/DTD/svg11.dtd">
<!-- Generated by graphviz version 2.38.0 (20140413.2041)
 -->
<!-- Title: models_diagram Pages: 1 -->
<svg width="680pt" height="1279pt"
 viewBox="0.00 0.00 680.29 1279.00" xmlns="http://www.w3.org/2000/svg" xmlns:xlink="http://www.w3.org/1999/xlink">
<g id="graph0" class="graph" transform="scale(1 1) rotate(0) translate(4 1275)">
<title>models_diagram</title>
<polygon fill="white" stroke="none" points="-4,4 -4,-1275 676.293,-1275 676.293,4 -4,4"/>
<!-- _diagram_info -->
<g id="node1" class="node"><title>_diagram_info</title>
<text text-anchor="start" x="163.818" y="-1200.6" font-family="Times,serif" font-size="13.00">Models diagram</text>
<text text-anchor="start" x="163.818" y="-1187.6" font-family="Times,serif" font-size="13.00">Date: Mar 18 2015 &#45; 12:21</text>
<text text-anchor="start" x="163.818" y="-1174.6" font-family="Times,serif" font-size="13.00">Migration version: 20150318104428</text>
<text text-anchor="start" x="163.818" y="-1161.6" font-family="Times,serif" font-size="13.00">Generated by RailRoady 1.3.0</text>
<text text-anchor="start" x="163.818" y="-1148.6" font-family="Times,serif" font-size="13.00">http://railroady.prestonlee.com</text>
</g>
<!-- Badge -->
<g id="node2" class="node"><title>Badge</title>
<path fill="none" stroke="black" d="M392.952,-1086.5C392.952,-1086.5 554.059,-1086.5 554.059,-1086.5 560.059,-1086.5 566.059,-1092.5 566.059,-1098.5 566.059,-1098.5 566.059,-1258.5 566.059,-1258.5 566.059,-1264.5 560.059,-1270.5 554.059,-1270.5 554.059,-1270.5 392.952,-1270.5 392.952,-1270.5 386.952,-1270.5 380.952,-1264.5 380.952,-1258.5 380.952,-1258.5 380.952,-1098.5 380.952,-1098.5 380.952,-1092.5 386.952,-1086.5 392.952,-1086.5"/>
<text text-anchor="middle" x="473.505" y="-1255.3" font-family="Times,serif" font-size="14.00">Badge</text>
<polyline fill="none" stroke="black" points="380.952,-1248.5 566.059,-1248.5 "/>
<text text-anchor="start" x="388.952" y="-1233.3" font-family="Times,serif" font-size="14.00">id :integer</text>
<text text-anchor="start" x="388.952" y="-1219.3" font-family="Times,serif" font-size="14.00">color :integer</text>
<text text-anchor="start" x="388.952" y="-1205.3" font-family="Times,serif" font-size="14.00">name :string</text>
<text text-anchor="start" x="388.952" y="-1191.3" font-family="Times,serif" font-size="14.00">description :text</text>
<text text-anchor="start" x="388.952" y="-1177.3" font-family="Times,serif" font-size="14.00">comment :text</text>
<text text-anchor="start" x="388.952" y="-1163.3" font-family="Times,serif" font-size="14.00">created_at :datetime</text>
<text text-anchor="start" x="388.952" y="-1149.3" font-family="Times,serif" font-size="14.00">updated_at :datetime</text>
<text text-anchor="start" x="388.952" y="-1135.3" font-family="Times,serif" font-size="14.00">emblem_file_name :string</text>
<text text-anchor="start" x="388.952" y="-1121.3" font-family="Times,serif" font-size="14.00">emblem_content_type :string</text>
<text text-anchor="start" x="388.952" y="-1107.3" font-family="Times,serif" font-size="14.00">emblem_file_size :integer</text>
<text text-anchor="start" x="388.952" y="-1093.3" font-family="Times,serif" font-size="14.00">emblem_updated_at :datetime</text>
</g>
<!-- BadgeRequirement -->
<g id="node3" class="node"><title>BadgeRequirement</title>
<path fill="none" stroke="black" d="M12,-521.5C12,-521.5 121.011,-521.5 121.011,-521.5 127.011,-521.5 133.011,-527.5 133.011,-533.5 133.011,-533.5 133.011,-609.5 133.011,-609.5 133.011,-615.5 127.011,-621.5 121.011,-621.5 121.011,-621.5 12,-621.5 12,-621.5 6,-621.5 0,-615.5 0,-609.5 0,-609.5 0,-533.5 0,-533.5 0,-527.5 6,-521.5 12,-521.5"/>
<text text-anchor="middle" x="66.5054" y="-606.3" font-family="Times,serif" font-size="14.00">BadgeRequirement</text>
<polyline fill="none" stroke="black" points="0,-599.5 133.011,-599.5 "/>
<text text-anchor="start" x="8" y="-584.3" font-family="Times,serif" font-size="14.00">id :integer</text>
<text text-anchor="start" x="8" y="-570.3" font-family="Times,serif" font-size="14.00">badge_id :integer</text>
<text text-anchor="start" x="8" y="-556.3" font-family="Times,serif" font-size="14.00">description :text</text>
<text text-anchor="start" x="8" y="-542.3" font-family="Times,serif" font-size="14.00">created_at :datetime</text>
<text text-anchor="start" x="8" y="-528.3" font-family="Times,serif" font-size="14.00">updated_at :datetime</text>
</g>
<!-- Badge&#45;&gt;BadgeRequirement -->
<g id="edge2" class="edge"><title>Badge&#45;&gt;BadgeRequirement</title>
<path fill="none" stroke="#4cdd01" d="M373.82,-1086.72C373.382,-1086.48 372.944,-1086.24 372.505,-1086 315.94,-1055.3 279.728,-1092.73 232.505,-1049 111.636,-937.08 78.7684,-732.485 69.8357,-631.748"/>
<ellipse fill="none" stroke="#4cdd01" cx="377.421" cy="-1088.82" rx="4.00002" ry="4.00002"/>
<polygon fill="#4cdd01" stroke="#4cdd01" points="69.8326,-631.709 73.4818,-621.368 69.415,-626.727 68.9975,-621.744 68.9975,-621.744 68.9975,-621.744 69.415,-626.727 64.5132,-622.12 69.8326,-631.709 69.8326,-631.709"/>
</g>
<!-- BadgeTrial -->
<g id="node4" class="node"><title>BadgeTrial</title>
<path fill="none" stroke="black" d="M519,-388.5C519,-388.5 628.011,-388.5 628.011,-388.5 634.011,-388.5 640.011,-394.5 640.011,-400.5 640.011,-400.5 640.011,-476.5 640.011,-476.5 640.011,-482.5 634.011,-488.5 628.011,-488.5 628.011,-488.5 519,-488.5 519,-488.5 513,-488.5 507,-482.5 507,-476.5 507,-476.5 507,-400.5 507,-400.5 507,-394.5 513,-388.5 519,-388.5"/>
<text text-anchor="middle" x="573.505" y="-473.3" font-family="Times,serif" font-size="14.00">BadgeTrial</text>
<polyline fill="none" stroke="black" points="507,-466.5 640.011,-466.5 "/>
<text text-anchor="start" x="515" y="-451.3" font-family="Times,serif" font-size="14.00">id :integer</text>
<text text-anchor="start" x="515" y="-437.3" font-family="Times,serif" font-size="14.00">user_id :integer</text>
<text text-anchor="start" x="515" y="-423.3" font-family="Times,serif" font-size="14.00">badge_id :integer</text>
<text text-anchor="start" x="515" y="-409.3" font-family="Times,serif" font-size="14.00">created_at :datetime</text>
<text text-anchor="start" x="515" y="-395.3" font-family="Times,serif" font-size="14.00">updated_at :datetime</text>
</g>
<!-- Badge&#45;&gt;BadgeTrial -->
<g id="edge4" class="edge"><title>Badge&#45;&gt;BadgeTrial</title>
<path fill="none" stroke="#3b1f6f" d="M486.949,-1078.29C508.044,-922.605 548.282,-625.646 565.436,-499.056"/>
<ellipse fill="none" stroke="#3b1f6f" cx="486.405" cy="-1082.3" rx="4.00001" ry="4.00001"/>
<polygon fill="#3b1f6f" stroke="#3b1f6f" points="565.484,-498.7 571.286,-489.394 566.155,-493.745 566.826,-488.79 566.826,-488.79 566.826,-488.79 566.155,-493.745 562.367,-488.186 565.484,-498.7 565.484,-498.7"/>
</g>
<!-- BadgesToTrial -->
<g id="node5" class="node"><title>BadgesToTrial</title>
<path fill="none" stroke="black" d="M570.717,-236.5C570.717,-236.5 660.293,-236.5 660.293,-236.5 666.293,-236.5 672.293,-242.5 672.293,-248.5 672.293,-248.5 672.293,-296.5 672.293,-296.5 672.293,-302.5 666.293,-308.5 660.293,-308.5 660.293,-308.5 570.717,-308.5 570.717,-308.5 564.717,-308.5 558.717,-302.5 558.717,-296.5 558.717,-296.5 558.717,-248.5 558.717,-248.5 558.717,-242.5 564.717,-236.5 570.717,-236.5"/>
<text text-anchor="middle" x="615.505" y="-293.3" font-family="Times,serif" font-size="14.00">BadgesToTrial</text>
<polyline fill="none" stroke="black" points="558.717,-286.5 672.293,-286.5 "/>
<text text-anchor="start" x="566.717" y="-271.3" font-family="Times,serif" font-size="14.00">id :integer</text>
<text text-anchor="start" x="566.717" y="-257.3" font-family="Times,serif" font-size="14.00">badge_id :integer</text>
<text text-anchor="start" x="566.717" y="-243.3" font-family="Times,serif" font-size="14.00">trial_id :integer</text>
</g>
<!-- Badge&#45;&gt;BadgesToTrial -->
<g id="edge3" class="edge"><title>Badge&#45;&gt;BadgesToTrial</title>
<path fill="none" stroke="#e1fa8a" d="M521.495,-1078.64C525.512,-1068.74 529.267,-1058.75 532.505,-1049 610.753,-813.483 623.36,-749.794 649.505,-503 655.545,-445.986 658.816,-430.572 649.505,-374 646.43,-355.313 640.34,-335.424 634.154,-318.314"/>
<ellipse fill="none" stroke="#e1fa8a" cx="519.904" cy="-1082.49" rx="4.00002" ry="4.00002"/>
<polygon fill="#e1fa8a" stroke="#e1fa8a" points="634.021,-317.959 634.737,-307.016 632.271,-313.275 630.522,-308.591 630.522,-308.591 630.522,-308.591 632.271,-313.275 626.306,-310.166 634.021,-317.959 634.021,-317.959"/>
</g>
<!-- Trial -->
<g id="node11" class="node"><title>Trial</title>
<path fill="none" stroke="black" d="M368,-381.5C368,-381.5 477.011,-381.5 477.011,-381.5 483.011,-381.5 489.011,-387.5 489.011,-393.5 489.011,-393.5 489.011,-483.5 489.011,-483.5 489.011,-489.5 483.011,-495.5 477.011,-495.5 477.011,-495.5 368,-495.5 368,-495.5 362,-495.5 356,-489.5 356,-483.5 356,-483.5 356,-393.5 356,-393.5 356,-387.5 362,-381.5 368,-381.5"/>
<text text-anchor="middle" x="422.505" y="-480.3" font-family="Times,serif" font-size="14.00">Trial</text>
<polyline fill="none" stroke="black" points="356,-473.5 489.011,-473.5 "/>
<text text-anchor="start" x="364" y="-458.3" font-family="Times,serif" font-size="14.00">id :integer</text>
<text text-anchor="start" x="364" y="-444.3" font-family="Times,serif" font-size="14.00">user_id :integer</text>
<text text-anchor="start" x="364" y="-430.3" font-family="Times,serif" font-size="14.00">created_at :datetime</text>
<text text-anchor="start" x="364" y="-416.3" font-family="Times,serif" font-size="14.00">updated_at :datetime</text>
<text text-anchor="start" x="364" y="-402.3" font-family="Times,serif" font-size="14.00">completed :boolean</text>
<text text-anchor="start" x="364" y="-388.3" font-family="Times,serif" font-size="14.00">badge_id :integer</text>
</g>
<!-- Badge&#45;&gt;Trial -->
<g id="edge5" class="edge"><title>Badge&#45;&gt;Trial</title>
<path fill="none" stroke="#485d41" d="M473.629,-1076.19C472.896,-967.957 469.215,-791.48 454.505,-640 450.143,-595.072 442.138,-544.922 435.226,-506.017"/>
<polygon fill="#485d41" stroke="#485d41" points="473.63,-1076.45 469.191,-1086.48 473.66,-1081.45 473.691,-1086.45 473.691,-1086.45 473.691,-1086.45 473.66,-1081.45 478.191,-1086.42 473.63,-1076.45 473.63,-1076.45"/>
<polygon fill="#485d41" stroke="#485d41" points="435.171,-505.711 437.831,-495.073 434.286,-500.79 433.402,-495.868 433.402,-495.868 433.402,-495.868 434.286,-500.79 428.973,-496.664 435.171,-505.711 435.171,-505.711"/>
</g>
<!-- User -->
<g id="node12" class="node"><title>User</title>
<path fill="none" stroke="black" d="M253.228,-640.5C253.228,-640.5 433.783,-640.5 433.783,-640.5 439.783,-640.5 445.783,-646.5 445.783,-652.5 445.783,-652.5 445.783,-1036.5 445.783,-1036.5 445.783,-1042.5 439.783,-1048.5 433.783,-1048.5 433.783,-1048.5 253.228,-1048.5 253.228,-1048.5 247.228,-1048.5 241.228,-1042.5 241.228,-1036.5 241.228,-1036.5 241.228,-652.5 241.228,-652.5 241.228,-646.5 247.228,-640.5 253.228,-640.5"/>
<text text-anchor="middle" x="343.505" y="-1033.3" font-family="Times,serif" font-size="14.00">User</text>
<polyline fill="none" stroke="black" points="241.228,-1026.5 445.783,-1026.5 "/>
<text text-anchor="start" x="249.228" y="-1011.3" font-family="Times,serif" font-size="14.00">id :integer</text>
<text text-anchor="start" x="249.228" y="-997.3" font-family="Times,serif" font-size="14.00">email :string</text>
<text text-anchor="start" x="249.228" y="-983.3" font-family="Times,serif" font-size="14.00">encrypted_password :string</text>
<text text-anchor="start" x="249.228" y="-969.3" font-family="Times,serif" font-size="14.00">reset_password_token :string</text>
<text text-anchor="start" x="249.228" y="-955.3" font-family="Times,serif" font-size="14.00">reset_password_sent_at :datetime</text>
<text text-anchor="start" x="249.228" y="-941.3" font-family="Times,serif" font-size="14.00">remember_created_at :datetime</text>
<text text-anchor="start" x="249.228" y="-927.3" font-family="Times,serif" font-size="14.00">sign_in_count :integer</text>
<text text-anchor="start" x="249.228" y="-913.3" font-family="Times,serif" font-size="14.00">current_sign_in_at :datetime</text>
<text text-anchor="start" x="249.228" y="-899.3" font-family="Times,serif" font-size="14.00">last_sign_in_at :datetime</text>
<text text-anchor="start" x="249.228" y="-885.3" font-family="Times,serif" font-size="14.00">current_sign_in_ip :inet</text>
<text text-anchor="start" x="249.228" y="-871.3" font-family="Times,serif" font-size="14.00">last_sign_in_ip :inet</text>
<text text-anchor="start" x="249.228" y="-857.3" font-family="Times,serif" font-size="14.00">created_at :datetime</text>
<text text-anchor="start" x="249.228" y="-843.3" font-family="Times,serif" font-size="14.00">updated_at :datetime</text>
<text text-anchor="start" x="249.228" y="-829.3" font-family="Times,serif" font-size="14.00">User :string</text>
<text text-anchor="start" x="249.228" y="-815.3" font-family="Times,serif" font-size="14.00">first_name :string</text>
<text text-anchor="start" x="249.228" y="-801.3" font-family="Times,serif" font-size="14.00">last_name :string</text>
<text text-anchor="start" x="249.228" y="-787.3" font-family="Times,serif" font-size="14.00">stars :integer</text>
<text text-anchor="start" x="249.228" y="-773.3" font-family="Times,serif" font-size="14.00">description :text</text>
<text text-anchor="start" x="249.228" y="-759.3" font-family="Times,serif" font-size="14.00">pesel :integer</text>
<text text-anchor="start" x="249.228" y="-745.3" font-family="Times,serif" font-size="14.00">address_1 :string</text>
<text text-anchor="start" x="249.228" y="-731.3" font-family="Times,serif" font-size="14.00">address_2 :string</text>
<text text-anchor="start" x="249.228" y="-717.3" font-family="Times,serif" font-size="14.00">school :string</text>
<text text-anchor="start" x="249.228" y="-703.3" font-family="Times,serif" font-size="14.00">school_class :string</text>
<text text-anchor="start" x="249.228" y="-689.3" font-family="Times,serif" font-size="14.00">parental_agreement :boolean</text>
<text text-anchor="start" x="249.228" y="-675.3" font-family="Times,serif" font-size="14.00">medical_info :text</text>
<text text-anchor="start" x="249.228" y="-661.3" font-family="Times,serif" font-size="14.00">team_id :integer</text>
<text text-anchor="start" x="249.228" y="-647.3" font-family="Times,serif" font-size="14.00">admin :boolean</text>
</g>
<!-- Badge&#45;&gt;User -->
<g id="edge1" class="edge"><title>Badge&#45;&gt;User</title>
<path fill="none" stroke="#6623f9" d="M434.128,-1076.94C431.723,-1070.79 429.263,-1064.51 426.763,-1058.13"/>
<polygon fill="#6623f9" stroke="#6623f9" points="434.164,-1077.03 433.62,-1087.98 435.987,-1081.68 437.81,-1086.34 437.81,-1086.34 437.81,-1086.34 435.987,-1081.68 442.001,-1084.7 434.164,-1077.03 434.164,-1077.03"/>
<polygon fill="#6623f9" stroke="#6623f9" points="426.721,-1058.02 427.265,-1047.07 424.898,-1053.36 423.075,-1048.71 423.075,-1048.71 423.075,-1048.71 424.898,-1053.36 418.885,-1050.35 426.721,-1058.02 426.721,-1058.02"/>
</g>
<!-- PlanPoint -->
<g id="node7" class="node"><title>PlanPoint</title>
<path fill="none" stroke="black" d="M20.8208,-0.5C20.8208,-0.5 160.19,-0.5 160.19,-0.5 166.19,-0.5 172.19,-6.5 172.19,-12.5 172.19,-12.5 172.19,-158.5 172.19,-158.5 172.19,-164.5 166.19,-170.5 160.19,-170.5 160.19,-170.5 20.8208,-170.5 20.8208,-170.5 14.8208,-170.5 8.8208,-164.5 8.8208,-158.5 8.8208,-158.5 8.8208,-12.5 8.8208,-12.5 8.8208,-6.5 14.8208,-0.5 20.8208,-0.5"/>
<text text-anchor="middle" x="90.5054" y="-155.3" font-family="Times,serif" font-size="14.00">PlanPoint</text>
<polyline fill="none" stroke="black" points="8.8208,-148.5 172.19,-148.5 "/>
<text text-anchor="start" x="16.8208" y="-133.3" font-family="Times,serif" font-size="14.00">id :integer</text>
<text text-anchor="start" x="16.8208" y="-119.3" font-family="Times,serif" font-size="14.00">task_name :string</text>
<text text-anchor="start" x="16.8208" y="-105.3" font-family="Times,serif" font-size="14.00">task_time :integer</text>
<text text-anchor="start" x="16.8208" y="-91.3" font-family="Times,serif" font-size="14.00">task_info :text</text>
<text text-anchor="start" x="16.8208" y="-77.3" font-family="Times,serif" font-size="14.00">materials_needed :text</text>
<text text-anchor="start" x="16.8208" y="-63.3" font-family="Times,serif" font-size="14.00">person_responsible :string</text>
<text text-anchor="start" x="16.8208" y="-49.3" font-family="Times,serif" font-size="14.00">set_id :integer</text>
<text text-anchor="start" x="16.8208" y="-35.3" font-family="Times,serif" font-size="14.00">set_type :string</text>
<text text-anchor="start" x="16.8208" y="-21.3" font-family="Times,serif" font-size="14.00">created_at :datetime</text>
<text text-anchor="start" x="16.8208" y="-7.3" font-family="Times,serif" font-size="14.00">updated_at :datetime</text>
</g>
<!-- BadgeRequirement&#45;&gt;PlanPoint -->
<g id="edge6" class="edge"><title>BadgeRequirement&#45;&gt;PlanPoint</title>
<path fill="none" stroke="#6ddca9" d="M69.3461,-513.212C73.4063,-431.33 80.9181,-279.844 85.8119,-181.151"/>
<ellipse fill="none" stroke="#6ddca9" cx="69.1368" cy="-517.433" rx="4" ry="4"/>
<polygon fill="#6ddca9" stroke="#6ddca9" points="85.8261,-180.864 90.8159,-171.1 86.0737,-175.87 86.3214,-170.877 86.3214,-170.877 86.3214,-170.877 86.0737,-175.87 81.8269,-170.654 85.8261,-180.864 85.8261,-180.864"/>
</g>
<!-- CustomTask -->
<g id="node6" class="node"><title>CustomTask</title>
<path fill="none" stroke="black" d="M107,-208.5C107,-208.5 216.011,-208.5 216.011,-208.5 222.011,-208.5 228.011,-214.5 228.011,-220.5 228.011,-220.5 228.011,-324.5 228.011,-324.5 228.011,-330.5 222.011,-336.5 216.011,-336.5 216.011,-336.5 107,-336.5 107,-336.5 101,-336.5 95,-330.5 95,-324.5 95,-324.5 95,-220.5 95,-220.5 95,-214.5 101,-208.5 107,-208.5"/>
<text text-anchor="middle" x="161.505" y="-321.3" font-family="Times,serif" font-size="14.00">CustomTask</text>
<polyline fill="none" stroke="black" points="95,-314.5 228.011,-314.5 "/>
<text text-anchor="start" x="103" y="-299.3" font-family="Times,serif" font-size="14.00">id :integer</text>
<text text-anchor="start" x="103" y="-285.3" font-family="Times,serif" font-size="14.00">name :string</text>
<text text-anchor="start" x="103" y="-271.3" font-family="Times,serif" font-size="14.00">description :text</text>
<text text-anchor="start" x="103" y="-257.3" font-family="Times,serif" font-size="14.00">trial_id :integer</text>
<text text-anchor="start" x="103" y="-243.3" font-family="Times,serif" font-size="14.00">created_at :datetime</text>
<text text-anchor="start" x="103" y="-229.3" font-family="Times,serif" font-size="14.00">updated_at :datetime</text>
<text text-anchor="start" x="103" y="-215.3" font-family="Times,serif" font-size="14.00">user_id :integer</text>
</g>
<!-- CustomTask&#45;&gt;PlanPoint -->
<g id="edge7" class="edge"><title>CustomTask&#45;&gt;PlanPoint</title>
<path fill="none" stroke="#2d2938" d="M134.397,-200.867C131.789,-194.069 129.115,-187.104 126.439,-180.13"/>
<ellipse fill="none" stroke="#2d2938" cx="135.837" cy="-204.616" rx="4.00001" ry="4.00001"/>
<polygon fill="#2d2938" stroke="#2d2938" points="126.376,-179.967 126.995,-169.018 124.585,-175.299 122.793,-170.63 122.793,-170.63 122.793,-170.63 124.585,-175.299 118.592,-172.243 126.376,-179.967 126.376,-179.967"/>
</g>
<!-- Rank -->
<g id="node8" class="node"><title>Rank</title>
<path fill="none" stroke="black" d="M368,-222.5C368,-222.5 477.011,-222.5 477.011,-222.5 483.011,-222.5 489.011,-228.5 489.011,-234.5 489.011,-234.5 489.011,-310.5 489.011,-310.5 489.011,-316.5 483.011,-322.5 477.011,-322.5 477.011,-322.5 368,-322.5 368,-322.5 362,-322.5 356,-316.5 356,-310.5 356,-310.5 356,-234.5 356,-234.5 356,-228.5 362,-222.5 368,-222.5"/>
<text text-anchor="middle" x="422.505" y="-307.3" font-family="Times,serif" font-size="14.00">Rank</text>
<polyline fill="none" stroke="black" points="356,-300.5 489.011,-300.5 "/>
<text text-anchor="start" x="364" y="-285.3" font-family="Times,serif" font-size="14.00">id :integer</text>
<text text-anchor="start" x="364" y="-271.3" font-family="Times,serif" font-size="14.00">level :integer</text>
<text text-anchor="start" x="364" y="-257.3" font-family="Times,serif" font-size="14.00">created_at :datetime</text>
<text text-anchor="start" x="364" y="-243.3" font-family="Times,serif" font-size="14.00">updated_at :datetime</text>
<text text-anchor="start" x="364" y="-229.3" font-family="Times,serif" font-size="14.00">trial_id :integer</text>
</g>
<!-- RankRequirement -->
<g id="node9" class="node"><title>RankRequirement</title>
<path fill="none" stroke="black" d="M368,-21.5C368,-21.5 477.011,-21.5 477.011,-21.5 483.011,-21.5 489.011,-27.5 489.011,-33.5 489.011,-33.5 489.011,-137.5 489.011,-137.5 489.011,-143.5 483.011,-149.5 477.011,-149.5 477.011,-149.5 368,-149.5 368,-149.5 362,-149.5 356,-143.5 356,-137.5 356,-137.5 356,-33.5 356,-33.5 356,-27.5 362,-21.5 368,-21.5"/>
<text text-anchor="middle" x="422.505" y="-134.3" font-family="Times,serif" font-size="14.00">RankRequirement</text>
<polyline fill="none" stroke="black" points="356,-127.5 489.011,-127.5 "/>
<text text-anchor="start" x="364" y="-112.3" font-family="Times,serif" font-size="14.00">id :integer</text>
<text text-anchor="start" x="364" y="-98.3" font-family="Times,serif" font-size="14.00">color :integer</text>
<text text-anchor="start" x="364" y="-84.3" font-family="Times,serif" font-size="14.00">description :text</text>
<text text-anchor="start" x="364" y="-70.3" font-family="Times,serif" font-size="14.00">trial_id :integer</text>
<text text-anchor="start" x="364" y="-56.3" font-family="Times,serif" font-size="14.00">created_at :datetime</text>
<text text-anchor="start" x="364" y="-42.3" font-family="Times,serif" font-size="14.00">updated_at :datetime</text>
<text text-anchor="start" x="364" y="-28.3" font-family="Times,serif" font-size="14.00">rank_id :integer</text>
</g>
<!-- Rank&#45;&gt;RankRequirement -->
<g id="edge8" class="edge"><title>Rank&#45;&gt;RankRequirement</title>
<path fill="none" stroke="#7f03bf" d="M422.505,-214.142C422.505,-197.009 422.505,-177.987 422.505,-159.971"/>
<ellipse fill="none" stroke="#7f03bf" cx="422.505" cy="-218.409" rx="4" ry="4"/>
<polygon fill="#7f03bf" stroke="#7f03bf" points="422.505,-159.795 427.005,-149.794 422.505,-154.795 422.505,-149.795 422.505,-149.795 422.505,-149.795 422.505,-154.795 418.005,-149.795 422.505,-159.795 422.505,-159.795"/>
</g>
<!-- Team -->
<g id="node10" class="node"><title>Team</title>
<path fill="none" stroke="black" d="M188.6,-374.5C188.6,-374.5 326.411,-374.5 326.411,-374.5 332.411,-374.5 338.411,-380.5 338.411,-386.5 338.411,-386.5 338.411,-490.5 338.411,-490.5 338.411,-496.5 332.411,-502.5 326.411,-502.5 326.411,-502.5 188.6,-502.5 188.6,-502.5 182.6,-502.5 176.6,-496.5 176.6,-490.5 176.6,-490.5 176.6,-386.5 176.6,-386.5 176.6,-380.5 182.6,-374.5 188.6,-374.5"/>
<text text-anchor="middle" x="257.505" y="-487.3" font-family="Times,serif" font-size="14.00">Team</text>
<polyline fill="none" stroke="black" points="176.6,-480.5 338.411,-480.5 "/>
<text text-anchor="start" x="184.6" y="-465.3" font-family="Times,serif" font-size="14.00">id :integer</text>
<text text-anchor="start" x="184.6" y="-451.3" font-family="Times,serif" font-size="14.00">name :string</text>
<text text-anchor="start" x="184.6" y="-437.3" font-family="Times,serif" font-size="14.00">history :text</text>
<text text-anchor="start" x="184.6" y="-423.3" font-family="Times,serif" font-size="14.00">situation_description :text</text>
<text text-anchor="start" x="184.6" y="-409.3" font-family="Times,serif" font-size="14.00">created_at :datetime</text>
<text text-anchor="start" x="184.6" y="-395.3" font-family="Times,serif" font-size="14.00">updated_at :datetime</text>
<text text-anchor="start" x="184.6" y="-381.3" font-family="Times,serif" font-size="14.00">user_id :integer</text>
</g>
<!-- Team&#45;&gt;User -->
<g id="edge9" class="edge"><title>Team&#45;&gt;User</title>
<path fill="none" stroke="#e8731a" d="M316.473,-509.769C318.355,-513.462 320.05,-517.214 321.505,-521 334.673,-555.262 342.548,-593.068 346.975,-630.371"/>
<ellipse fill="none" stroke="#e8731a" cx="314.555" cy="-506.254" rx="4.00002" ry="4.00002"/>
<polygon fill="#e8731a" stroke="#e8731a" points="346.98,-630.417 343.608,-640.852 347.531,-635.387 348.081,-640.356 348.081,-640.356 348.081,-640.356 347.531,-635.387 352.554,-639.861 346.98,-630.417 346.98,-630.417"/>
<text text-anchor="middle" x="362.005" y="-567.3" font-family="Times,serif" font-size="14.00">scouts</text>
</g>
<!-- Trial&#45;&gt;BadgesToTrial -->
<g id="edge12" class="edge"><title>Trial&#45;&gt;BadgesToTrial</title>
<path fill="none" stroke="#d8c753" d="M495.032,-375.871C518.85,-355.632 544.749,-333.624 566.409,-315.219"/>
<ellipse fill="none" stroke="#d8c753" cx="491.703" cy="-378.7" rx="4.00002" ry="4.00002"/>
<polygon fill="#d8c753" stroke="#d8c753" points="566.565,-315.087 577.099,-312.041 570.375,-311.849 574.185,-308.611 574.185,-308.611 574.185,-308.611 570.375,-311.849 571.271,-305.182 566.565,-315.087 566.565,-315.087"/>
</g>
<!-- Trial&#45;&gt;CustomTask -->
<g id="edge11" class="edge"><title>Trial&#45;&gt;CustomTask</title>
<path fill="none" stroke="#a0fdd8" d="M351,-376.423C349.833,-375.602 348.668,-374.794 347.505,-374 312.86,-350.35 272.078,-327.786 237.543,-310.053"/>
<ellipse fill="none" stroke="#a0fdd8" cx="354.449" cy="-378.915" rx="4.00002" ry="4.00002"/>
<polygon fill="#a0fdd8" stroke="#a0fdd8" points="237.354,-309.956 230.486,-301.407 232.899,-307.687 228.444,-305.417 228.444,-305.417 228.444,-305.417 232.899,-307.687 226.401,-309.427 237.354,-309.956 237.354,-309.956"/>
</g>
<!-- Trial&#45;&gt;Rank -->
<g id="edge10" class="edge"><title>Trial&#45;&gt;Rank</title>
<path fill="none" stroke="#e2b042" d="M422.505,-372.94C422.505,-359.081 422.505,-344.525 422.505,-330.957"/>
<ellipse fill="none" stroke="#e2b042" cx="422.505" cy="-377.061" rx="4" ry="4"/>
<ellipse fill="#e2b042" stroke="#e2b042" cx="422.505" cy="-326.652" rx="4" ry="4"/>
</g>
<!-- User&#45;&gt;BadgeTrial -->
<g id="edge14" class="edge"><title>User&#45;&gt;BadgeTrial</title>
<path fill="none" stroke="#126e7b" d="M449.957,-656.515C482.815,-598.8 516.608,-539.441 540.528,-497.425"/>
<ellipse fill="none" stroke="#126e7b" cx="447.873" cy="-660.177" rx="4.00002" ry="4.00002"/>
<polygon fill="#126e7b" stroke="#126e7b" points="540.531,-497.419 549.39,-490.955 543.005,-493.074 545.479,-488.729 545.479,-488.729 545.479,-488.729 543.005,-493.074 541.568,-486.503 540.531,-497.419 540.531,-497.419"/>
</g>
<!-- User&#45;&gt;CustomTask -->
<g id="edge16" class="edge"><title>User&#45;&gt;CustomTask</title>
<path fill="none" stroke="#99d96b" d="M237.345,-674.853C209.27,-621.834 182.607,-561.75 167.505,-503 154.406,-452.039 153.221,-392.606 155.146,-346.991"/>
<ellipse fill="none" stroke="#99d96b" cx="239.251" cy="-678.422" rx="4.00002" ry="4.00002"/>
<polygon fill="#99d96b" stroke="#99d96b" points="155.152,-346.877 160.128,-337.105 155.392,-341.883 155.633,-336.889 155.633,-336.889 155.633,-336.889 155.392,-341.883 151.138,-336.672 155.152,-346.877 155.152,-346.877"/>
</g>
<!-- User&#45;&gt;Team -->
<g id="edge13" class="edge"><title>User&#45;&gt;Team</title>
<path fill="none" stroke="#a2d6b7" d="M256.742,-632.625C255.953,-629.072 255.215,-625.528 254.533,-622 246.012,-577.927 253.714,-565.881 254.533,-521 254.582,-518.306 254.64,-515.562 254.706,-512.79"/>
<ellipse fill="none" stroke="#a2d6b7" cx="257.646" cy="-636.522" rx="4.00001" ry="4.00001"/>
<polygon fill="#a2d6b7" stroke="#a2d6b7" points="254.709,-512.671 259.472,-502.794 254.841,-507.673 254.974,-502.674 254.974,-502.674 254.974,-502.674 254.841,-507.673 250.475,-502.555 254.709,-512.671 254.709,-512.671"/>
<text text-anchor="middle" x="285.992" y="-567.3" font-family="Times,serif" font-size="14.00">lead_teams</text>
</g>
<!-- User&#45;&gt;Trial -->
<g id="edge15" class="edge"><title>User&#45;&gt;Trial</title>
<path fill="none" stroke="#1405bc" d="M384.823,-632.207C393.81,-586.245 402.672,-540.927 409.542,-505.796"/>
<ellipse fill="none" stroke="#1405bc" cx="384.004" cy="-636.391" rx="4.00001" ry="4.00001"/>
<polygon fill="#1405bc" stroke="#1405bc" points="409.597,-505.513 415.932,-496.563 410.556,-500.606 411.516,-495.699 411.516,-495.699 411.516,-495.699 410.556,-500.606 407.1,-494.836 409.597,-505.513 409.597,-505.513"/>
</g>
</g>
</svg>
