<?xml version="1.0" encoding="UTF-8" standalone="no"?>
<!DOCTYPE svg PUBLIC "-//W3C//DTD SVG 1.1//EN"
 "http://www.w3.org/Graphics/SVG/1.1/DTD/svg11.dtd">
<!-- Generated by graphviz version 2.38.0 (20140413.2041)
 -->
<!-- Title: models_diagram Pages: 1 -->
<svg width="519pt" height="408pt"
 viewBox="0.00 0.00 518.60 408.00" xmlns="http://www.w3.org/2000/svg" xmlns:xlink="http://www.w3.org/1999/xlink">
<g id="graph0" class="graph" transform="scale(1 1) rotate(0) translate(4 404)">
<title>models_diagram</title>
<polygon fill="white" stroke="none" points="-4,4 -4,-404 514.602,-404 514.602,4 -4,4"/>
<!-- _diagram_info -->
<g id="node1" class="node"><title>_diagram_info</title>
<text text-anchor="start" x="140.688" y="-385.6" font-family="Times,serif" font-size="13.00">Models diagram</text>
<text text-anchor="start" x="140.688" y="-372.6" font-family="Times,serif" font-size="13.00">Date: Mar 18 2015 &#45; 12:21</text>
<text text-anchor="start" x="140.688" y="-359.6" font-family="Times,serif" font-size="13.00">Migration version: 20150318104428</text>
<text text-anchor="start" x="140.688" y="-346.6" font-family="Times,serif" font-size="13.00">Generated by RailRoady 1.3.0</text>
<text text-anchor="start" x="140.688" y="-333.6" font-family="Times,serif" font-size="13.00">http://railroady.prestonlee.com</text>
</g>
<!-- Badge -->
<g id="node2" class="node"><title>Badge</title>
<ellipse fill="none" stroke="black" cx="390.376" cy="-363.5" rx="32.8994" ry="18"/>
<text text-anchor="middle" x="390.376" y="-359.3" font-family="Times,serif" font-size="14.00">Badge</text>
</g>
<!-- BadgeRequirement -->
<g id="node3" class="node"><title>BadgeRequirement</title>
<ellipse fill="none" stroke="black" cx="78.376" cy="-218" rx="78.2521" ry="18"/>
<text text-anchor="middle" x="78.376" y="-213.8" font-family="Times,serif" font-size="14.00">BadgeRequirement</text>
</g>
<!-- Badge&#45;&gt;BadgeRequirement -->
<g id="edge2" class="edge"><title>Badge&#45;&gt;BadgeRequirement</title>
<path fill="none" stroke="#f2b455" d="M369.127,-341.744C363.061,-336.493 356.229,-331.168 349.376,-327 311.071,-303.703 196.135,-260.975 128.88,-236.835"/>
<ellipse fill="none" stroke="#f2b455" cx="372.398" cy="-344.681" rx="4.00002" ry="4.00002"/>
<polygon fill="#f2b455" stroke="#f2b455" points="128.733,-236.783 120.835,-229.176 124.026,-235.098 119.318,-233.413 119.318,-233.413 119.318,-233.413 124.026,-235.098 117.802,-237.65 128.733,-236.783 128.733,-236.783"/>
</g>
<!-- BadgeTrial -->
<g id="node4" class="node"><title>BadgeTrial</title>
<ellipse fill="none" stroke="black" cx="402.376" cy="-164" rx="49.6572" ry="18"/>
<text text-anchor="middle" x="402.376" y="-159.8" font-family="Times,serif" font-size="14.00">BadgeTrial</text>
</g>
<!-- Badge&#45;&gt;BadgeTrial -->
<g id="edge4" class="edge"><title>Badge&#45;&gt;BadgeTrial</title>
<path fill="none" stroke="#a59b6d" d="M398.306,-337.595C400.769,-328.673 403.156,-318.478 404.376,-309 409.554,-268.76 407.364,-221.677 405.066,-192.593"/>
<ellipse fill="none" stroke="#a59b6d" cx="397.167" cy="-341.531" rx="4.00001" ry="4.00001"/>
<polygon fill="#a59b6d" stroke="#a59b6d" points="405.045,-192.343 408.679,-181.997 404.62,-187.362 404.196,-182.38 404.196,-182.38 404.196,-182.38 404.62,-187.362 399.712,-182.762 405.045,-192.343 405.045,-192.343"/>
</g>
<!-- BadgesToTrial -->
<g id="node5" class="node"><title>BadgesToTrial</title>
<ellipse fill="none" stroke="black" cx="448.376" cy="-91" rx="62.4534" ry="18"/>
<text text-anchor="middle" x="448.376" y="-86.8" font-family="Times,serif" font-size="14.00">BadgesToTrial</text>
</g>
<!-- Badge&#45;&gt;BadgesToTrial -->
<g id="edge3" class="edge"><title>Badge&#45;&gt;BadgesToTrial</title>
<path fill="none" stroke="#62b239" d="M403.856,-338.684C408.753,-329.553 414.123,-318.939 418.376,-309 441.819,-254.213 451.692,-240.8 461.376,-182 464.872,-160.775 460.963,-136.647 456.542,-118.72"/>
<ellipse fill="none" stroke="#62b239" cx="401.804" cy="-342.447" rx="4.00002" ry="4.00002"/>
<polygon fill="#62b239" stroke="#62b239" points="456.513,-118.611 458.28,-107.789 455.223,-113.781 453.932,-108.95 453.932,-108.95 453.932,-108.95 455.223,-113.781 449.585,-110.112 456.513,-118.611 456.513,-118.611"/>
</g>
<!-- Trial -->
<g id="node11" class="node"><title>Trial</title>
<ellipse fill="none" stroke="black" cx="307.376" cy="-164" rx="27" ry="18"/>
<text text-anchor="middle" x="307.376" y="-159.8" font-family="Times,serif" font-size="14.00">Trial</text>
</g>
<!-- Badge&#45;&gt;Trial -->
<g id="edge5" class="edge"><title>Badge&#45;&gt;Trial</title>
<path fill="none" stroke="#9c0835" d="M386.256,-335.277C380.278,-301.644 366.997,-243.54 341.376,-200 338.476,-195.072 334.741,-190.309 330.814,-185.967"/>
<polygon fill="#9c0835" stroke="#9c0835" points="386.281,-335.428 383.509,-346.037 387.114,-340.358 387.946,-345.288 387.946,-345.288 387.946,-345.288 387.114,-340.358 392.384,-344.539 386.281,-335.428 386.281,-335.428"/>
<polygon fill="#9c0835" stroke="#9c0835" points="330.664,-185.814 326.894,-175.517 327.17,-182.238 323.675,-178.662 323.675,-178.662 323.675,-178.662 327.17,-182.238 320.457,-181.807 330.664,-185.814 330.664,-185.814"/>
</g>
<!-- User -->
<g id="node12" class="node"><title>User</title>
<ellipse fill="none" stroke="black" cx="309.376" cy="-272" rx="27" ry="18"/>
<text text-anchor="middle" x="309.376" y="-267.8" font-family="Times,serif" font-size="14.00">User</text>
</g>
<!-- Badge&#45;&gt;User -->
<g id="edge1" class="edge"><title>Badge&#45;&gt;User</title>
<path fill="none" stroke="#8aa31d" d="M369.456,-339.385C357.155,-325.792 341.679,-308.693 329.516,-295.253"/>
<polygon fill="#8aa31d" stroke="#8aa31d" points="369.557,-339.496 372.93,-349.93 372.912,-343.203 376.267,-346.91 376.267,-346.91 376.267,-346.91 372.912,-343.203 379.603,-343.891 369.557,-339.496 369.557,-339.496"/>
<polygon fill="#8aa31d" stroke="#8aa31d" points="329.496,-295.231 326.122,-284.797 326.141,-291.524 322.786,-287.817 322.786,-287.817 322.786,-287.817 326.141,-291.524 319.449,-290.836 329.496,-295.231 329.496,-295.231"/>
</g>
<!-- PlanPoint -->
<g id="node7" class="node"><title>PlanPoint</title>
<ellipse fill="none" stroke="black" cx="127.376" cy="-18" rx="44.5096" ry="18"/>
<text text-anchor="middle" x="127.376" y="-13.8" font-family="Times,serif" font-size="14.00">PlanPoint</text>
</g>
<!-- BadgeRequirement&#45;&gt;PlanPoint -->
<g id="edge6" class="edge"><title>BadgeRequirement&#45;&gt;PlanPoint</title>
<path fill="none" stroke="#efcf94" d="M82.5378,-192.027C87.5949,-163.117 96.8923,-114.195 108.376,-73 110.908,-63.9173 114.173,-54.1499 117.28,-45.4529"/>
<ellipse fill="none" stroke="#efcf94" cx="81.8463" cy="-196.034" rx="4.00001" ry="4.00001"/>
<polygon fill="#efcf94" stroke="#efcf94" points="117.361,-45.2301 125.026,-37.388 119.081,-40.5352 120.801,-35.8402 120.801,-35.8402 120.801,-35.8402 119.081,-40.5352 116.575,-34.2924 117.361,-45.2301 117.361,-45.2301"/>
</g>
<!-- CustomTask -->
<g id="node6" class="node"><title>CustomTask</title>
<ellipse fill="none" stroke="black" cx="171.376" cy="-91" rx="54.3986" ry="18"/>
<text text-anchor="middle" x="171.376" y="-86.8" font-family="Times,serif" font-size="14.00">CustomTask</text>
</g>
<!-- CustomTask&#45;&gt;PlanPoint -->
<g id="edge7" class="edge"><title>CustomTask&#45;&gt;PlanPoint</title>
<path fill="none" stroke="#179987" d="M156.621,-66.1902C152.262,-59.1574 147.477,-51.4357 143.062,-44.312"/>
<ellipse fill="none" stroke="#179987" cx="158.841" cy="-69.7739" rx="4.00002" ry="4.00002"/>
<polygon fill="#179987" stroke="#179987" points="142.996,-44.2053 141.554,-33.3348 140.362,-39.9553 137.728,-35.7052 137.728,-35.7052 137.728,-35.7052 140.362,-39.9553 133.903,-38.0757 142.996,-44.2053 142.996,-44.2053"/>
</g>
<!-- Rank -->
<g id="node8" class="node"><title>Rank</title>
<ellipse fill="none" stroke="black" cx="307.376" cy="-91" rx="28.5497" ry="18"/>
<text text-anchor="middle" x="307.376" y="-86.8" font-family="Times,serif" font-size="14.00">Rank</text>
</g>
<!-- RankRequirement -->
<g id="node9" class="node"><title>RankRequirement</title>
<ellipse fill="none" stroke="black" cx="307.376" cy="-18" rx="74.4016" ry="18"/>
<text text-anchor="middle" x="307.376" y="-13.8" font-family="Times,serif" font-size="14.00">RankRequirement</text>
</g>
<!-- Rank&#45;&gt;RankRequirement -->
<g id="edge8" class="edge"><title>Rank&#45;&gt;RankRequirement</title>
<path fill="none" stroke="#8c8443" d="M307.376,-64.791C307.376,-58.832 307.376,-52.4496 307.376,-46.3988"/>
<ellipse fill="none" stroke="#8c8443" cx="307.376" cy="-68.8129" rx="4" ry="4"/>
<polygon fill="#8c8443" stroke="#8c8443" points="307.376,-46.0288 311.876,-36.0288 307.376,-41.0288 307.376,-36.0288 307.376,-36.0288 307.376,-36.0288 307.376,-41.0288 302.876,-36.0289 307.376,-46.0288 307.376,-46.0288"/>
</g>
<!-- Team -->
<g id="node10" class="node"><title>Team</title>
<ellipse fill="none" stroke="black" cx="231.376" cy="-164" rx="29.7411" ry="18"/>
<text text-anchor="middle" x="231.376" y="-159.8" font-family="Times,serif" font-size="14.00">Team</text>
</g>
<!-- Team&#45;&gt;User -->
<g id="edge9" class="edge"><title>Team&#45;&gt;User</title>
<path fill="none" stroke="#3679ea" d="M254.514,-184.651C259.409,-189.397 264.316,-194.652 268.376,-200 279.316,-214.409 278.333,-220.33 287.376,-236 289.377,-239.468 291.551,-243.086 293.726,-246.624"/>
<ellipse fill="none" stroke="#3679ea" cx="251.313" cy="-181.669" rx="4.00002" ry="4.00002"/>
<polygon fill="#3679ea" stroke="#3679ea" points="293.74,-246.646 295.228,-257.511 296.392,-250.886 299.043,-255.125 299.043,-255.125 299.043,-255.125 296.392,-250.886 302.858,-252.739 293.74,-246.646 293.74,-246.646"/>
<text text-anchor="middle" x="304.876" y="-213.8" font-family="Times,serif" font-size="14.00">scouts</text>
</g>
<!-- Trial&#45;&gt;BadgesToTrial -->
<g id="edge12" class="edge"><title>Trial&#45;&gt;BadgesToTrial</title>
<path fill="none" stroke="#c0b130" d="M335.626,-148.775C356.941,-138.042 386.42,-123.198 409.889,-111.38"/>
<ellipse fill="none" stroke="#c0b130" cx="331.754" cy="-150.725" rx="4.00002" ry="4.00002"/>
<polygon fill="#c0b130" stroke="#c0b130" points="409.953,-111.348 420.909,-110.869 414.419,-109.099 418.885,-106.85 418.885,-106.85 418.885,-106.85 414.419,-109.099 416.861,-102.831 409.953,-111.348 409.953,-111.348"/>
</g>
<!-- Trial&#45;&gt;CustomTask -->
<g id="edge11" class="edge"><title>Trial&#45;&gt;CustomTask</title>
<path fill="none" stroke="#2dc6f9" d="M279.487,-148.441C258.899,-137.692 230.677,-122.958 208.23,-111.24"/>
<ellipse fill="none" stroke="#2dc6f9" cx="283.175" cy="-150.365" rx="4.00002" ry="4.00002"/>
<polygon fill="#2dc6f9" stroke="#2dc6f9" points="208.18,-111.214 201.398,-102.597 203.748,-108.9 199.316,-106.586 199.316,-106.586 199.316,-106.586 203.748,-108.9 197.233,-110.575 208.18,-111.214 208.18,-111.214"/>
</g>
<!-- Trial&#45;&gt;Rank -->
<g id="edge10" class="edge"><title>Trial&#45;&gt;Rank</title>
<path fill="none" stroke="#8d75ad" d="M307.376,-137.791C307.376,-131.087 307.376,-123.847 307.376,-117.147"/>
<ellipse fill="none" stroke="#8d75ad" cx="307.376" cy="-141.813" rx="4" ry="4"/>
<ellipse fill="#8d75ad" stroke="#8d75ad" cx="307.376" cy="-113.029" rx="4" ry="4"/>
</g>
<!-- User&#45;&gt;BadgeTrial -->
<g id="edge14" class="edge"><title>User&#45;&gt;BadgeTrial</title>
<path fill="none" stroke="#ed6abe" d="M328.73,-250.043C332.926,-245.44 337.321,-240.575 341.376,-236 355.072,-220.547 370.2,-202.943 381.964,-189.13"/>
<ellipse fill="none" stroke="#ed6abe" cx="325.883" cy="-253.154" rx="4.00002" ry="4.00002"/>
<polygon fill="#ed6abe" stroke="#ed6abe" points="381.99,-189.1 391.895,-184.394 385.228,-185.29 388.466,-181.48 388.466,-181.48 388.466,-181.48 385.228,-185.29 385.037,-178.566 381.99,-189.1 381.99,-189.1"/>
</g>
<!-- User&#45;&gt;CustomTask -->
<g id="edge16" class="edge"><title>User&#45;&gt;CustomTask</title>
<path fill="none" stroke="#75e171" d="M276.335,-263.044C243.75,-254.896 198.014,-242.527 192.376,-236 164.332,-203.535 164.252,-150.783 167.377,-118.94"/>
<ellipse fill="none" stroke="#75e171" cx="280.421" cy="-264.056" rx="4.00001" ry="4.00001"/>
<polygon fill="#75e171" stroke="#75e171" points="167.377,-118.936 172.994,-109.518 167.951,-113.969 168.524,-109.002 168.524,-109.002 168.524,-109.002 167.951,-113.969 164.054,-108.486 167.377,-118.936 167.377,-118.936"/>
</g>
<!-- User&#45;&gt;Team -->
<g id="edge13" class="edge"><title>User&#45;&gt;Team</title>
<path fill="none" stroke="#9bedd2" d="M273.976,-269.821C249.259,-266.92 217.853,-258.625 201.403,-236 191.994,-223.059 195.856,-215.007 201.403,-200 203.116,-195.366 205.747,-190.932 208.752,-186.87"/>
<ellipse fill="none" stroke="#9bedd2" cx="278.09" cy="-270.222" rx="4" ry="4"/>
<polygon fill="#9bedd2" stroke="#9bedd2" points="208.84,-186.765 218.72,-182.006 212.058,-182.938 215.275,-179.111 215.275,-179.111 215.275,-179.111 212.058,-182.938 211.831,-176.215 208.84,-186.765 208.84,-186.765"/>
<text text-anchor="middle" x="233.862" y="-213.8" font-family="Times,serif" font-size="14.00">lead_teams</text>
</g>
<!-- User&#45;&gt;Trial -->
<g id="edge15" class="edge"><title>User&#45;&gt;Trial</title>
<path fill="none" stroke="#84f72b" d="M322.562,-247.464C324.136,-243.728 325.495,-239.831 326.376,-236 329.962,-220.407 330.314,-215.508 326.376,-200 325.499,-196.545 324.204,-193.061 322.695,-189.701"/>
<ellipse fill="none" stroke="#84f72b" cx="320.809" cy="-251.21" rx="4.00002" ry="4.00002"/>
<polygon fill="#84f72b" stroke="#84f72b" points="322.63,-189.574 322.048,-178.623 320.339,-185.13 318.048,-180.685 318.048,-180.685 318.048,-180.685 320.339,-185.13 314.048,-182.747 322.63,-189.574 322.63,-189.574"/>
</g>
</g>
</svg>
